<?xml version="1.0" standalone="no"?><!DOCTYPE svg PUBLIC "-//W3C//DTD SVG 1.1//EN" "http://www.w3.org/Graphics/SVG/1.1/DTD/svg11.dtd"><svg t="1602643155961" class="icon" viewBox="0 0 1024 1024" version="1.1" xmlns="http://www.w3.org/2000/svg" p-id="1787" xmlns:xlink="http://www.w3.org/1999/xlink" width="200" height="200"><defs><style type="text/css"></style></defs><path d="M490.666667 455.111111A177.777778 177.777778 0 1 0 312.888889 277.333333 178.346667 178.346667 0 0 0 490.666667 455.111111z m-21.333334 170.666667a35.555556 35.555556 0 1 1 42.666667 0l48.071111 168.96c3.413333 11.946667 0.056889 24.860444-8.817778 33.564444l-48.071111 48.071111a17.351111 17.351111 0 0 1-25.031111 0l-48.071111-48.071111a33.848889 33.848889 0 0 1-8.817778-33.564444L469.333333 625.777778zM335.928889 472.746667A249.173333 249.173333 0 1 1 739.555556 277.333333a252.586667 252.586667 0 0 1-94.151112 195.413334 426.666667 426.666667 0 0 1 307.484445 409.031111 106.951111 106.951111 0 0 1-106.666667 106.666666h-711.111111A106.951111 106.951111 0 0 1 28.444444 881.777778a426.666667 426.666667 0 0 1 307.484445-409.031111z m510.293333 444.586666c19.626667 0 35.555556-15.928889 35.555556-35.555555a356.408889 356.408889 0 0 0-355.555556-355.555556H455.111111a356.408889 356.408889 0 0 0-355.555555 355.555556 35.555556 35.555556 0 0 0 35.555555 35.555555h711.111111z" p-id="1788" fill="#ffffff"></path></svg>