<?xml version="1.0" standalone="no"?><!DOCTYPE svg PUBLIC "-//W3C//DTD SVG 1.1//EN" "http://www.w3.org/Graphics/SVG/1.1/DTD/svg11.dtd"><svg t="1593498162365" class="icon" viewBox="0 0 1024 1024" version="1.1" xmlns="http://www.w3.org/2000/svg" p-id="6809" xmlns:xlink="http://www.w3.org/1999/xlink" width="200" height="200"><defs><style type="text/css"></style></defs><path d="M868.859106 68.24736 456.315258 68.24736c-48.673559 0-88.277556 38.245046-88.277556 85.23629l0 108.703771L84.760964 505.779322c-10.43056 4.021593-17.899672 13.963013-17.899672 25.805736l0 396.353097c0 15.373129 12.43931 27.815509 27.814486 27.815509 15.373129 0 27.814486-12.441357 27.814486-27.815509L122.490264 546.68701l245.548462-211.107045 0 209.368448L245.970576 671.362544c-10.647501 11.08036-10.348696 28.684296 0.705058 39.331797 11.028171 10.646478 28.630061 10.375302 39.331797-0.653893l136.083351-141.02592 22.653953-20.208251c0.353041-0.325411 36.071543-33.843806 76.56991-33.843806 20.290115 0 38.571481 8.529257 57.82908 27.867698 0.299829 0.272199 5.732561 5.378497 8.394181 15.101953 0.597611 3.042289 1.167592 6.137791 1.113357 9.94142-0.161682 10.266831-3.342118 24.066115-13.065574 41.395806-10.593266 17.981537-29.228695 40.580231-61.442374 67.798129l-109.925598 96.154967L248.875742 906.370952c-11.678994 9.997702-13.036921 27.54331-3.013637 39.223327 5.486968 6.40999 13.281491 9.723455 21.104667 9.723455 6.411013 0 12.848633-2.226714 18.090007-6.681166l126.904295-108.758006c13.417591 7.714705 28.492938 12.170181 44.355207 12.170181l412.543847 0c48.674583 0 88.278579-38.246069 88.278579-85.23629L957.138708 153.48365C957.137685 106.492406 917.534711 68.24736 868.859106 68.24736zM553.665447 723.025181c64.240093-54.216809 96.509031-106.531292 95.939049-155.424862-0.517793-44.979424-28.631084-68.882833-29.281907-69.155033-17.872043-18.088984-37.646412-30.040177-58.724473-36.993542-12.088316-4.347005-24.50102-7.389294-37.592177-7.768941-1.140986 0-2.281973-0.055259-3.39533-0.055259-19.040658 0-36.478819 4.618181-51.852972 10.756995-0.027629 0-0.054235 0-0.081864 0-5.432733 2.173502-10.56666 4.455475-15.373129 6.89913-9.181103 4.454452-17.71036 9.072633-24.636097 13.634532L428.666548 153.48365c0-13.365402 12.657274-24.609491 27.650757-24.609491l270.702352 0 0 662.544715L475.492016 791.418874 553.665447 723.025181zM896.510886 766.81143c0 13.363356-12.657274 24.607444-27.650757 24.607444l-82.845847 0L786.014282 128.874159l82.845847 0c14.993482 0 27.650757 11.244089 27.650757 24.609491L896.510886 766.81143z" p-id="6810"></path></svg>