<?xml version="1.0" standalone="no"?><!DOCTYPE svg PUBLIC "-//W3C//DTD SVG 1.1//EN" "http://www.w3.org/Graphics/SVG/1.1/DTD/svg11.dtd"><svg t="1605518327505" class="icon" viewBox="0 0 1024 1024" version="1.1" xmlns="http://www.w3.org/2000/svg" p-id="3090" xmlns:xlink="http://www.w3.org/1999/xlink" width="200" height="200"><defs><style type="text/css"></style></defs><path d="M512 42.666667a213.333333 213.333333 0 1 1 0 426.666666 213.333333 213.333333 0 0 1 0-426.666666z m0 64a149.333333 149.333333 0 1 0 0 298.666666 149.333333 149.333333 0 0 0 0-298.666666zM512 725.333333a256 256 0 0 1 255.829333 246.4L768 981.333333H256a256 256 0 0 1 256-256z m0 64a192.085333 192.085333 0 0 0-179.328 123.221334l-1.706667 4.778666h362.069334l-1.28-3.584a192.170667 192.170667 0 0 0-170.666667-124.202666L512 789.333333z" fill="#ffffff" p-id="3091"></path><path d="M810.666667 512l128 469.333333H85.333333l128-469.333333h597.333334z m-48.896 64H262.186667l-93.056 341.333333h685.696l-93.056-341.333333z" fill="#ffffff" p-id="3092"></path></svg>