<?xml version="1.0" standalone="no"?><!DOCTYPE svg PUBLIC "-//W3C//DTD SVG 1.1//EN" "http://www.w3.org/Graphics/SVG/1.1/DTD/svg11.dtd"><svg t="1602643124309" class="icon" viewBox="0 0 1024 1024" version="1.1" xmlns="http://www.w3.org/2000/svg" p-id="866" xmlns:xlink="http://www.w3.org/1999/xlink" width="200" height="200"><defs><style type="text/css"></style></defs><path d="M500.363636 465.454545c-102.4 0-186.181818-83.781818-186.181818-186.181818V186.181818h46.545455v93.090909c0 76.8 62.836364 139.636364 139.636363 139.636364s139.636364-62.836364 139.636364-139.636364V186.181818h46.545455v93.090909c0 102.4-83.781818 186.181818-186.181819 186.181818zM535.272727 912.290909H249.018182c-51.2 0-100.072727-23.272727-128-62.836364-25.6-34.909091-34.909091-79.127273-20.945455-121.018181L139.636364 579.490909C158.254545 512 223.418182 465.454545 297.890909 465.454545h498.036364v46.545455H297.890909c-53.527273 0-102.4 34.909091-114.036364 81.454545l-39.563636 148.945455c-9.309091 27.927273-2.327273 58.181818 13.963636 81.454545 20.945455 27.927273 53.527273 44.218182 90.763637 44.218182H535.272727v44.218182z" fill="#ffffff" p-id="867"></path><path d="M709.818182 907.636364h-46.545455v-23.272728c0-90.763636-72.145455-162.909091-162.909091-162.909091s-162.909091 72.145455-162.909091 162.909091v23.272728h-46.545454v-23.272728c0-116.363636 93.090909-209.454545 209.454545-209.454545s209.454545 93.090909 209.454546 209.454545v23.272728z" fill="#ffffff" p-id="868"></path><path d="M681.728 877.544727l57.623273-230.283636 45.149091 11.287273-57.623273 230.283636zM216.296727 658.455273l45.149091-11.287273 57.576727 230.283636-45.14909 11.287273zM539.322182 685.079273l139.403636-209.128728 38.749091 25.809455-139.426909 209.152z" fill="#ffffff" p-id="869"></path><path d="M756.363636 744.727273m-186.181818 0a186.181818 186.181818 0 1 0 372.363637 0 186.181818 186.181818 0 1 0-372.363637 0Z" fill="#ffffff" p-id="870"></path><path d="M756.363636 954.181818c-116.363636 0-209.454545-93.090909-209.454545-209.454545s93.090909-209.454545 209.454545-209.454546 209.454545 93.090909 209.454546 209.454546-93.090909 209.454545-209.454546 209.454545z m0-372.363636c-90.763636 0-162.909091 72.145455-162.909091 162.909091s72.145455 162.909091 162.909091 162.909091 162.909091-72.145455 162.909091-162.909091-72.145455-162.909091-162.909091-162.909091z" fill="#ffffff" p-id="871"></path><path d="M777.309091 847.127273h-41.890909l-79.127273-158.254546 39.563636-20.945454 60.509091 118.690909 60.509091-118.690909 39.563637 20.945454z" fill="#ffffff" p-id="872"></path><path d="M500.363636 256c-116.363636 0-209.454545-51.2-209.454545-116.363636 0-16.290909 4.654545-30.254545 16.290909-41.890909C337.454545 69.818182 397.963636 69.818182 477.090909 69.818182h46.545455c79.127273 0 139.636364 0 169.890909 27.927273 11.636364 11.636364 16.290909 25.6 16.290909 41.890909 0 65.163636-93.090909 116.363636-209.454546 116.363636z m-44.218181-139.636364c-51.2 0-102.4 2.327273-116.363637 16.290909-2.327273 2.327273-2.327273 2.327273-2.327273 9.309091 0 32.581818 69.818182 69.818182 162.909091 69.818182s162.909091-37.236364 162.909091-69.818182c0-4.654545-2.327273-6.981818-2.327272-9.309091-16.290909-16.290909-76.8-16.290909-137.309091-16.290909h-67.490909z" fill="#ffffff" p-id="873"></path></svg>