<?xml version="1.0" standalone="no"?><!DOCTYPE svg PUBLIC "-//W3C//DTD SVG 1.1//EN" "http://www.w3.org/Graphics/SVG/1.1/DTD/svg11.dtd"><svg t="1593681229926" class="icon" viewBox="0 0 1024 1024" version="1.1" xmlns="http://www.w3.org/2000/svg" p-id="7773" xmlns:xlink="http://www.w3.org/1999/xlink" width="200" height="200"><defs><style type="text/css"></style></defs><path d="M394.66695 629.620472l-124.85211 137.82652 52.549906 47.587017 124.85211-137.812341zM502.928831 724.780326L377.991643 873.752077l54.308186 45.573502 124.965548-148.971752z" p-id="7774"></path><path d="M552.827136 1024c222.479229-264.791404 349.1038-419.761161 382.893985-468.865404 63.000332-91.558214 58.604631-149.05683-20.815775-224.818876a1331.188656 1331.188656 0 0 0-60.533067-53.953695c-25.892101-21.850892-104.986374-85.02138-115.323364-93.954581-61.086075-52.691703-139.258668-51.557328-194.318378 15.569292-25.807023 31.450537-159.30874 185.512795-398.831948 460.215798l74.812008 65.226542C461.665953 447.09959 594.685561 293.59034 621.485162 260.90617c17.483549-21.312064 31.649053-21.524759 52.734242-3.332225 12.109449 10.450426 91.785089 74.088845 116.145785 94.649385a1234.582475 1234.582475 0 0 1 56.038108 49.912485c43.290573 41.305417 43.531627 44.439127 7.543591 96.733798-31.053506 45.148111-157.777335 200.217126-377.122853 461.279274l76.003101 63.851113zM719.991421 100.70411l225.456963 189.951036 63.950371-75.918024-225.456963-189.936856z" p-id="7775"></path><path d="M196.335722 527.937964c-5.558436-4.821092-13.470699-12.577379-23.453196-23.084524 0.638086 0.666445-5.246483-5.473358-6.72117-7.061483a101.540711 101.540711 0 0 1-5.345741-6.168162c-7.855544-9.968317-8.06824-12.336324 2.481445-25.608508 34.683505-43.673424 117.379417-138.351169 158.996787-183.286584 17.625346-19.029135 25.140578-19.936635 47.360142-3.374765a476.876925 476.876925 0 0 1 75.506813 70.373768l75.010524-64.999668a576.120527 576.120527 0 0 0-91.189542-84.936302c-63.851113-47.601196-128.184336-39.958347-179.514789 15.498394-43.177135 46.622798-127.432813 143.073003-163.888779 188.986817-41.716628 52.493187-37.094051 105.17071-2.722499 148.787415 3.289686 4.168827 6.69281 8.082419 10.521325 12.208708 2.126952 2.282929 8.692146 9.160075 7.529412 7.940622 12.024371 12.648277 22.077767 22.503157 30.472139 29.777335l64.957129-75.053063zM157.752804 91.019386L0.287422 264.862302l73.280603 66.956464 157.465381-173.842916z" p-id="7776"></path></svg>