<?xml version="1.0" standalone="no"?><!DOCTYPE svg PUBLIC "-//W3C//DTD SVG 1.1//EN" "http://www.w3.org/Graphics/SVG/1.1/DTD/svg11.dtd"><svg t="1602644364970" class="icon" viewBox="0 0 1024 1024" version="1.1" xmlns="http://www.w3.org/2000/svg" p-id="9784" xmlns:xlink="http://www.w3.org/1999/xlink" width="200" height="200"><defs><style type="text/css"></style></defs><path d="M956.61 480.35l-63.54 4.52A382.09 382.09 0 0 1 131.87 551h171.61l91.94-142.58L464.14 716l147-214.41 50.6 49.41H795v-69.17H689.84l-89.34-87L497 545.86l-70.13-313.79L265.8 481.83H131.17a386.36 386.36 0 0 1 11.94-68.73A381.8 381.8 0 0 1 846 326.77l55.7-30.9c-0.06-0.12-0.13-0.23-0.19-0.34V115h-69.13v87.18a444.93 444.93 0 1 0 124.23 278.17z" p-id="9785" fill="#ffffff"></path></svg>