<?xml version="1.0" standalone="no"?><!DOCTYPE svg PUBLIC "-//W3C//DTD SVG 1.1//EN" "http://www.w3.org/Graphics/SVG/1.1/DTD/svg11.dtd"><svg t="1564489399088" class="icon" viewBox="0 0 1024 1024" version="1.1" xmlns="http://www.w3.org/2000/svg" p-id="2323" xmlns:xlink="http://www.w3.org/1999/xlink" width="200" height="200"><defs><style type="text/css"></style></defs><path d="M640.36317867 386.0430848c17.53306453 0 31.06187947-14.01596587 31.06187946-31.04003413v-107.65380267c0-17.52651093-14.0312576-31.04768-31.06187946-31.04768-17.53306453 0-31.56432213 14.02361173-31.56432214 31.04768v107.65380267c0.50244267 17.022976 14.532608 31.04003413 31.56432214 31.04003413z m0 0" fill="#5B5E65" p-id="2324"></path><path d="M839.6275712 75.63946667H185.46469547c-60.5421568 0.07645867-109.79464533 49.3912064-109.79464534 109.92899413v654.01760427c0.03822933 60.5093888 49.29071787 109.789184 109.80447574 109.86673493h654.15195306c60.50392747-0.07645867 109.756416-49.35625387 109.79464534-109.871104V185.50074027c-0.03713707-60.50501973-49.29071787-109.789184-109.79355307-109.8612736zM305.36062293 452.77620907V159.40102827h414.3710208v293.3751808H305.36062293z m-59.26638933 412.9718272h-60.6142464c-14.36112213 0-26.04291413-11.71019093-26.04291413-26.10408107V185.5684608c0-14.39061333 11.70909867-26.099712 26.099712-26.099712h36.06227626v331.97370027c0 23.0948864 18.79026347 46.2487552 41.8807808 46.2487552h498.13367467c23.1276544 0 41.94194773-23.1538688 41.94194773-46.2487552V159.4687488h36.04261547c14.37095253 0.0229376 26.06257493 11.73312853 26.06257493 26.099712V839.581696c0 14.37095253-11.69053013 26.0800512-26.06257493 26.10517333l-593.5038464 0.06116694z" fill="#5B5E65" p-id="2325"></path></svg>