<?xml version="1.0" standalone="no"?><!DOCTYPE svg PUBLIC "-//W3C//DTD SVG 1.1//EN" "http://www.w3.org/Graphics/SVG/1.1/DTD/svg11.dtd"><svg t="1595300738757" class="icon" viewBox="0 0 1024 1024" version="1.1" xmlns="http://www.w3.org/2000/svg" p-id="2953" xmlns:xlink="http://www.w3.org/1999/xlink" width="200" height="200"><defs><style type="text/css"></style></defs><path d="M279.272727 342.900364V298.356364a228.584727 228.584727 0 0 1 457.169455 0v44.497454h18.152727a137.588364 137.588364 0 0 1 137.541818 137.541818v273.082182a137.588364 137.588364 0 0 1-137.588363 137.541818H253.952A137.588364 137.588364 0 0 1 116.363636 753.570909v-273.082182a137.588364 137.588364 0 0 1 137.588364-137.541818H279.272727z m93.090909 0h270.987637V298.356364a135.493818 135.493818 0 1 0-270.987637 0v44.497454z m-118.411636 93.090909a44.497455 44.497455 0 0 0-44.497455 44.450909v273.082182c0 24.576 19.921455 44.450909 44.497455 44.450909H754.501818a44.497455 44.497455 0 0 0 44.497455-44.450909v-273.082182a44.497455 44.497455 0 0 0-44.497455-44.450909H253.952z" p-id="2954"></path></svg>