<?xml version="1.0" standalone="no"?><!DOCTYPE svg PUBLIC "-//W3C//DTD SVG 1.1//EN" "http://www.w3.org/Graphics/SVG/1.1/DTD/svg11.dtd"><svg t="1592803777673" class="icon" viewBox="0 0 1024 1024" version="1.1" xmlns="http://www.w3.org/2000/svg" p-id="8720" xmlns:xlink="http://www.w3.org/1999/xlink" width="200" height="200"><defs><style type="text/css"></style></defs><path d="M896 128l0 448c0 38.4-25.6 64-64 64l-64 0c-38.4 0-64 25.6-64 64l0 0c0 38.4 25.6 64 64 64l192 0c38.4 0 64-25.6 64-64L1024 0l0 0L320 0C281.6 0 256 25.6 256 64l0 256c0 38.4 25.6 64 64 64l0 0c38.4 0 64-25.6 64-64L384 192c0-38.4 25.6-64 64-64L896 128" p-id="8721"></path><path d="M640 384l0 448c0 38.4-25.6 64-64 64L192 896c-38.4 0-64-25.6-64-64L128 448c0-38.4 25.6-64 64-64L640 384M768 256 64 256C25.6 256 0 281.6 0 320l0 640c0 38.4 25.6 64 64 64l640 0c38.4 0 64-25.6 64-64L768 256 768 256z" p-id="8722"></path></svg>