<svg t="1594691219546" class="icon" viewBox="0 0 1024 1024" version="1.1" xmlns="http://www.w3.org/2000/svg" p-id="8786" width="200" height="200"><path d="M511.4920571638518 153.4803324776296" p-id="8787"></path><path d="M164.7606436598519 411.6433554394074" p-id="8788"></path><path d="M495.21303855407405 45.74671424474076l30.886418962962964 0c53.59855570488889 2.4887975632592596 106.99964658725925 12.869962107259258 156.8240241019259 33.06349575585185 103.89486038281483 41.107377114074076 191.57528181570373 121.26676339674073 242.04793780148145 220.92545198459257 32.08362454281481 62.45589174044445 49.066809268148155 132.32228852622222 50.56952547555556 202.45942180977778l0 16.651593197037037c-1.482846663111111 69.23302047288888-18.009005169777776 138.18785154844446-49.31519192177778 200.0327208201482C895.7379882856295 779.7891035591111 851.5096788385184 833.7291855644444 798.0042667804445 875.8735618654814c-54.74484345362963 43.175165345185185-119.34800524325924 73.8069915117037-187.48814009837037 88.63793758814815-27.674827282962962 6.243104995555556-55.96316133451852 9.147943291259258-84.23535047111112 10.838189549037036l-30.917467249777776 0c-37.06246121244444-1.9597412124444444-74.04543939318518-6.953480040296296-109.78029416296296-17.138423732148148-86.53785952711111-23.982615210666665-165.55219960414814-73.96844066133332-224.56550346903703-141.61553605214814-41.50603138844444-47.22504984651851-73.19100165688889-103.06029340444444-92.56487169896296-162.88084180385187-14.181423634962963-43.503031030518514-21.40688414340741-89.13221980918517-22.55192913540741-134.84834209185183l0-16.615577524148147c1.6542305848888887-84.8637581842963 26.617958551703698-169.17610738725926 72.37133805037038-240.7339919739259 48.515399073185186-76.45599546785185 119.78267519051853-138.31080072533334 202.5252430127407-175.18697464414814C375.5421362251851 61.43458114370378 435.23973423407404 48.452846174814795 495.21303855407405 45.74671424474076L495.21303855407405 45.74671424474076zM406.480715776 144.89745999644447c-29.448282415407405 37.00533323851851-48.678089765925925 80.87100287051851-64.29144101925925 125.20735812266666 21.913585436444446 5.502924420740741 44.40962814103704 7.897335580444444 66.70820723674073 11.259198881185183 27.64998913896296 2.851436164740741 55.37697700977778 5.3712808011851845 83.21325465599999 5.58861638162963-0.021112301037037033-67.4136148954074 0.016144914962962963-134.82598824770372-0.021112301037037033-202.26071544414813C456.7037475650371 92.15334081422219 428.2502385208889 117.190341669926 406.480715776 144.89745999644447L406.480715776 144.89745999644447zM529.3284356551111 286.93773001007406c37.62256463644444-0.6743593718518519 75.22898435792592-3.796533248 112.39452398933334-9.822303876740742 12.637724368592592-1.6169733688888885 25.16616017540741-3.977853155555555 37.52942098962963-7.0466236871111105-18.263597966222225-51.89340728888889-41.79663985777778-103.56326885451853-80.39907570725926-143.65351753955557-18.865925992296297-19.773765859555557-42.391517411555554-35.984478966518516-69.46649975466667-41.724608512C529.2775178239998 152.10925867614816 529.3719030139258 219.52287357155558 529.3284356551111 286.93773001007406L529.3284356551111 286.93773001007406zM369.7510876349629 106.8079343691852c-65.7270944805926 22.910843107555554-125.68549542874074 62.21744385896296-172.87328805925927 113.40047488948147 34.51529413214815 18.232549679407406 71.49951385600001 31.70484102637037 109.266141184 41.38184066844444 19.7216052717037-59.44300642607407 47.39146638222222-118.23400732444445 91.96751105896297-163.20746473244444C388.4145826322963 100.28912427614819 379.10022159170376 103.6658909487407 369.7510876349629 106.8079343691852L369.7510876349629 106.8079343691852zM623.1476421214816 98.11080594014817c9.277102610962963 8.55182419437037 16.73976824414815 18.772782345481478 24.839536033185187 28.376509098666666 30.378476126814814 40.57832197688889 51.62391112059259 87.24450872888889 67.39871152355555 135.21222345007408 37.74551381333333-9.842174634666666 74.62541357511111-23.386496113777774 109.28725348503701-41.37687328237037C770.7107073137779 161.83841769244447 700.1140647253333 118.58997945837041 623.1476421214816 98.11080594014817L623.1476421214816 98.11080594014817zM172.08918258725924 249.27914970074085c-53.41847855407408 69.33734043496295-85.11710943762962 155.1797282891852-88.51498841125925 242.7148454874074 61.95291629037036-0.10928856177777778 123.9058313671111-0.037257215999999996 185.8537802714074-0.037257215999999996 1.1972055798518517-65.58303300266665 9.60869413925926-131.08782451674074 26.110015715555555-194.60306928829627C252.74160833422224 286.1031630317037 210.96608077748152 270.4823600924444 172.08918258725924 249.27914970074085L172.08918258725924 249.27914970074085zM725.8974562986666 297.3549114405927c16.50504620562963 63.51400322844444 24.911567378962964 129.02003628562963 26.09387080059259 194.58319853037037 61.98893196325926-0.016144914962962963 123.97413686992591 0 185.96306883318516 0-3.645020084148148-87.51400489718519-35.11141322903703-173.40855212562963-88.68016219022222-242.6949747294815C810.4954453712594 270.59164865422224 768.6218067816296 285.993874469926 725.8974562986666 297.3549114405927L725.8974562986666 297.3549114405927zM306.5786119205926 491.7915641931852c61.8448692717037 0.3266241422222222 123.6884970002963 0.05712797392592593 185.52715612918516 0.14654577777777777L492.1057680497778 324.11941455644444c-53.832034986666656-0.996016128-107.70629578903704-6.590841438814813-160.33988365274075-18.119535274666664C315.76753827081484 366.58917224296295 307.9583789511112 429.1903682180741 306.5786119205926 491.7915641931852L306.5786119205926 491.7915641931852zM529.3284356551111 324.1032696414815c0 55.95819394844444 0 111.89651592533333 0.021112301037037033 167.83483911585182 61.8448692717037-0.10928856177777778 123.68352961422222 0.20119066548148148 185.52715612918516-0.16020639288888888-1.3946704023703702-62.60740490429629-9.205072478814813-125.2086008794074-25.20341739140741-185.81279721244445C637.0570865019259 317.56334724740736 583.1666807845926 323.102287341037 529.3284356551111 324.1032696414815L529.3284356551111 324.1032696414815zM83.53942125985185 529.1384237321482c3.4848124776296294 87.53511719822222 35.11762215822222 173.37750505244446 88.56963208533334 242.7148454874074 38.83591513125926-21.26157990874074 80.66857066192591-36.781788728888884 123.43017836088889-48.111776199111105-16.52119112059259-63.50903462874074-24.855680948148148-129.0349396574815-26.14603017481482-194.60306928829627C207.44525262696294 529.1744381914074 145.49233633659253 529.1744381914074 83.53942125985185 529.1384237321482L83.53942125985185 529.1384237321482zM306.5997242216296 529.2837267531852c1.3797670305185186 62.622308276148146 9.094541160296297 125.30174452622221 25.25309367940741 185.8860701013333 52.56776666074074-11.729884501333334 106.45692962133332-17.138423732148148 160.2368052337778-18.17666446222222 0.021112301037037033-55.93708043377777 0.021112301037037033-111.89651592533333 0.021112301037037033-167.83359757274076C430.26710770725924 529.2477110802963 368.42348119229626 528.9943610405925 306.5997242216296 529.2837267531852L306.5997242216296 529.2837267531852zM529.3284356551111 529.1595360331852l0 167.81869420088887c53.874260802370365 0.979871213037037 107.74727884799998 6.643002026666666 160.4032217694815 18.102148816592592 15.758655487999997-60.69733997985184 24.093145315555553-123.319648256 24.912808922074078-186.01522942103705C652.8728711774816 529.2837267531852 591.1012747946667 529.1086169884444 529.3284356551111 529.1595360331852L529.3284356551111 529.1595360331852zM751.9751821842963 529.1595360331852c-1.087917018074074 65.56192070162963-9.60869413925926 131.0667122157037-26.057855127703704 194.58195698725925 42.74173694103703 11.272859496296295 84.55824755674074 26.79927724562963 123.37801777303704 48.09687282725926 53.56129848888889-69.26903614577778 85.01403101866667-155.16482491733333 88.65904988918517-242.66268489955556C875.9654639691852 529.1384237321482 813.9591455478519 529.1744381914074 751.9751821842963 529.1595360331852L751.9751821842963 529.1595360331852zM342.22528921599996 750.9046516242962c18.098422973629628 52.01635646577778 41.81154322962963 103.72347524740739 80.43509138014814 143.84974081896294 18.84481369125926 19.736508643555556 42.37785558281482 35.932318378666665 69.42924253866666 41.63146486518518 0.05712797392592593-67.39374413748148 0-134.80611748977776 0.021112301037037033-202.22097392829625C441.7958027567407 735.1596567514074 391.4473374909629 740.283796442074 342.22528921599996 750.9046516242962L342.22528921599996 750.9046516242962zM529.3284356551111 734.1437698654814c0.021112301037037033 67.4136148954074-0.036015672888888885 134.84834209185183 0.042224602074074066 202.26071544414813 35.30887805155555-7.4614240900740745 63.74624096711111-32.41024868503703 85.47974803911112-60.081350125037034 29.506651932444445-37.05625106962963 48.85940845985185-80.97408128948149 64.38582742281481-125.41972631703703-22.568074050370367-5.450763832888889-45.6503010797037-8.079897031111111-68.57977340207408-11.40326157274074C583.6025934885926 736.8672894672593 556.5288526885926 734.3101864011851 529.3284356551111 734.1437698654814L529.3284356551111 734.1437698654814zM196.80452668681482 800.7948491282962c53.94132354844444 58.442022912 124.50195046399999 101.74758912 201.4522293665185 122.13858759111109-44.576044676740736-45.08398872651852-72.41232232296295-103.87374686814816-92.09791192177778-163.44094522785184C268.30404175644446 769.0378487277037 231.50114072651849 782.9100358921481 196.80452668681482 800.7948491282962L196.80452668681482 800.7948491282962zM715.3498752189629 759.4552342755555c-19.809781532444443 59.6044555757037-47.587688448 118.46748781985185-92.25811952829629 163.60736176355556 76.89811710103704-20.57107562192592 147.51090460444445-63.71022529422222 201.47458321066665-122.17336050725928C790.0845773558519 782.6243948088888 753.0804856604444 769.2564246376296 715.3498752189629 759.4552342755555L715.3498752189629 759.4552342755555zM715.3498752189629 759.4552342755555" p-id="8789"></path></svg>
