<svg t="1594690777298" class="icon" viewBox="0 0 1024 1024" version="1.1" xmlns="http://www.w3.org/2000/svg" p-id="2940" width="200" height="200"><path d="M428 288c-15.5 0-28-12.5-28-28s12.5-28 28-28h168c15.5 0 28 12.5 28 28s-12.5 28-28 28H428z" fill="#606060" p-id="2941"></path><path d="M904 456H736V120c0-30.9-25-56-56-56H344c-31 0-56 25.1-56 56v112H120c-31 0-56 25.1-56 56v616c0 30.9 25 56 56 56h784c31 0 56-25.1 56-56V512c0-30.9-25-56-56-56z m-616-56h-84c-15.5 0-28 12.5-28 28s12.5 28 28 28h84v448H120V288h168v112z m392 504H344V120h336v784z m224 0H736V680h84c15.5 0 28-12.5 28-28s-12.5-28-28-28h-84V512h168v392z" fill="#606060" p-id="2942"></path></svg>
