<svg t="1594690867511" class="icon" viewBox="0 0 1024 1024" version="1.1" xmlns="http://www.w3.org/2000/svg" p-id="7666" width="200" height="200"><path d="M119.38 631.44H64c0-140 113.87-253.84 253.84-253.84V433c-109.44 0-198.46 89-198.46 198.44z" p-id="7667"></path><path d="M317.84 432.75c-91.5 0-165.9-74.41-165.9-165.91s74.4-165.9 165.9-165.9a166.69 166.69 0 0 1 143.18 82L413.22 211a110.53 110.53 0 1 0-95.38 166.4zM960 631.44h-55.38C904.62 522 815.56 433 706.16 433v-55.4C846.13 377.6 960 491.46 960 631.44z" p-id="7668"></path><path d="M706.16 432.75v-55.38A110.53 110.53 0 1 0 610.78 211L563 182.92a166.69 166.69 0 0 1 143.18-82c91.5 0 165.9 74.41 165.9 165.9s-74.42 165.93-165.92 165.93zM904 923.06h-67.2c0-179.11-145.71-324.8-324.8-324.8S187.21 744 187.21 923.06H120c0-216.17 175.85-392 392-392s392 175.83 392 392z" p-id="7669"></path><path d="M512 598.26c-117.34 0-212.8-95.46-212.8-212.8s95.46-212.8 212.8-212.8 212.8 95.46 212.8 212.8-95.45 212.8-212.8 212.8z m0-358.4c-80.28 0-145.6 65.32-145.6 145.6s65.32 145.6 145.6 145.6 145.6-65.32 145.6-145.6-65.31-145.6-145.6-145.6z" p-id="7670"></path></svg>
