<svg t="1594690677489" class="icon" viewBox="0 0 1166 1024" version="1.1" xmlns="http://www.w3.org/2000/svg" p-id="7815" width="200" height="200"><path d="M1133.212444 961.123556h-46.321777V433.891556c0-49.991111-44.501333-92.046222-98.133334-92.046223h-115.2c-16.455111 0-32.924444 15.246222-32.924444 30.478223 0 15.232 16.469333 30.478222 32.924444 30.478222h115.2c12.188444 0 24.988444 12.188444 24.988445 23.153778v527.857777h-209.066667V93.155556c0-49.976889-44.501333-92.032-98.133333-92.032H185.400889c-53.034667 0-98.133333 42.055111-98.133333 92.032V961.137778H33.024c-16.455111 0-32.924444 15.232-32.924444 30.478222 0 15.232 16.469333 30.478222 32.924444 30.478222h1092.266667c16.455111 0 32.910222-15.246222 32.910222-30.478222 0.611556-14.634667-7.921778-30.478222-24.988445-30.478222z m-394.979555 0H160.426667V93.155556c0-11.576889 12.8-23.153778 24.988444-23.153778H713.244444c12.8-0.611556 24.988444 11.576889 24.988445 23.153778V961.137778z m-162.133333-306.588445H322.56c-16.455111 0-32.910222 15.232-32.910222 30.478222 0 18.275556 10.353778 37.788444 32.910222 37.788445h252.956444c16.455111 0 32.910222-15.246222 32.910223-30.478222 0.611556-15.843556-15.843556-37.788444-32.312889-37.788445z m0-388.266667H322.56c-16.455111 0-32.910222 15.232-32.910222 30.478223 0 15.232 16.455111 30.478222 32.910222 30.478222h252.956444c16.455111 0 32.910222-15.246222 32.910223-30.478222 0.611556-15.246222-15.843556-30.478222-32.312889-30.478223z m0 210.887112H322.56c-16.455111 0-32.910222 15.246222-32.910222 30.478222 0 15.246222 16.455111 30.478222 32.910222 30.478222h252.956444c16.455111 0 32.910222-15.232 32.910223-30.478222 0.611556-15.232-15.843556-30.478222-32.312889-30.478222z" p-id="7816"></path></svg>
