<svg t="1594690797436" class="icon" viewBox="0 0 1024 1024" version="1.1" xmlns="http://www.w3.org/2000/svg" p-id="3061" width="200" height="200"><path d="M768 192V0H256v192H0v832h1024V192H768zM256 960H64v-96h192v96z m0-160H64V256h192v544z m320 160h-128v-128h128v128z m128 0h-64v-192H384v192h-64V64h384v896z m256 0h-192v-96h192v96z m0-160h-192V256h192v544z" p-id="3062"></path><path d="M384 640h64v64h-64zM576 640h64v64h-64zM384 512h64v64h-64zM576 512h64v64h-64zM384 384h64v64h-64zM576 384h64v64h-64zM384 256h64v64h-64zM576 256h64v64h-64zM832 640h64v64h-64zM832 512h64v64h-64zM832 384h64v64h-64zM128 640h64v64H128zM128 512h64v64H128zM128 384h64v64H128zM384 128h64v64h-64zM576 128h64v64h-64z" p-id="3063"></path></svg>
